<?xml version="1.0" encoding="utf-8"?>
<!-- Generator: Adobe Illustrator 23.1.0, SVG Export Plug-In . SVG Version: 6.00 Build 0)  -->
<svg version="1.1" id="Layer_1" xmlns="http://www.w3.org/2000/svg" xmlns:xlink="http://www.w3.org/1999/xlink" x="0px" y="0px"
	 viewBox="0 0 460 109" style="enable-background:new 0 0 460 109;" xml:space="preserve">
<style type="text/css">
	.st0{fill:#FDFCFC;}
	.st1{fill:#C8086D;}
	.st2{fill:#0499C3;}
	.st3{fill:#023862;}
	.st4{fill:#C90C6E;}
	.st5{fill:#C9086C;}
	.st6{fill:#C90A6D;}
	.st7{fill:#C90B6E;}
	.st8{fill:#CA1071;}
	.st9{fill:#C9096D;}
	.st10{fill:#C9096C;}
	.st11{fill:#2599BF;}
	.st12{fill:#012A5A;}
	.st13{fill:#C60164;}
	.st14{fill:#C60163;}
	.st15{fill:#FCF5F8;}
	.st16{fill:#FCF4F8;}
	.st17{fill:#CA1171;}
</style>
<g>
	<g>
		<path class="st0" d="M0,109C0,72.67,0,36.33,0,0c153.33,0,306.67,0,460,0c0,36.33,0,72.67,0,109C306.67,109,153.33,109,0,109z
			 M373.01,28.97c-0.34,0.35-0.69,0.69-1.03,1.04c0,16,0,31.99,0,47.99c0.37,0.44,0.75,0.88,1.12,1.32c12.42,0,24.84,0,37.59,0
			c0-4.31,0-8.51,0-13.23c-8.73,0-17.14,0-25.79,0c0.1-2.14,0.17-3.74,0.26-5.81c8.38,0,16.46,0,24.7,0c0-4.38,0-8.26,0-12.62
			c-8.39,0-16.48,0-24.59,0c0-2.21,0-3.93,0-6.01c2.82,0,5.29,0.07,7.76-0.01c5.9-0.19,11.79-0.46,17.69-0.7
			c-0.24-3.99-0.49-7.98-0.73-11.97C397.66,28.96,385.34,28.97,373.01,28.97z M160.01,28.97c-0.33,0.34-0.66,0.69-0.99,1.03
			c0,16,0,32,0,48c-0.02,0.11-0.09,0.24-0.06,0.34c0.06,0.21,0.16,0.41,0.25,0.61c12.84,0,25.69,0,38.73,0c0-3.93,0-8.03,0-12.65
			c-8.62,0-17.04,0-25.54,0c0-2.22,0-3.92,0-6.19c8.4,0,16.46,0,24.5,0c0-4.35,0-8.12,0-12.4c-8.3,0-16.38,0-24.53,0
			c0-2.26,0-3.98,0-6.25c8.71,0,17.11,0,25.58,0c0-4.19,0-7.83,0-11.48c-0.32-0.34-0.64-0.68-0.96-1.02
			C184.66,28.97,172.34,28.97,160.01,28.97z M50.95,4.88c-0.68,0.35-1.37,0.7-2.05,1.04C35.5,13.47,22.05,20.92,8.78,28.69
			c-1.39,0.81-2.39,3.43-2.42,5.23c-0.22,10.95-0.17,21.9-0.08,32.85c0.04,4.42,0.4,8.84,0.61,13.25c0.14,0.28,0.21,0.7,0.44,0.83
			c14.09,7.77,28.17,15.56,42.35,23.16c1.08,0.58,3.18,0.19,4.37-0.5c12.63-7.31,25.19-14.77,37.73-22.23
			c0.9-0.54,1.55-1.51,2.31-2.28c0.08-16.02,0.19-32.03,0.2-48.05c0-0.83-0.76-1.67-1.16-2.5c-8.28-4.79-16.52-9.66-24.85-14.34
			C62.57,10.9,56.72,7.94,50.95,4.88z M152.95,79.14c0-16.85,0-33.43,0-50.13c-4.39,0-8.46,0-13.15,0c0,7.74,0,15.23,0,23.84
			c-5.47-6.86-10.65-12.38-14.66-18.64c-3.93-6.15-8.99-6.09-14.93-5.04c0,16.83,0,33.41,0,50.24c4.34,0,8.42,0,12.96,0
			c0-8.63,0-17.02,0-26.95c6.43,8.14,12.26,14.89,17.32,22.17C143.75,79.32,147.45,80.71,152.95,79.14z M226.74,27.83
			c-15.51-0.02-26.7,11.32-26.53,26.86c0.17,15.32,10.85,25.85,26.32,25.93c15.51,0.08,26.45-10.76,26.49-26.24
			C253.07,39,242.02,27.85,226.74,27.83z M270.23,66.03c4.67,0,8.65,0.16,12.62-0.03c9.95-0.48,17.15-7.64,17.79-17.49
			c0.62-9.56-5.73-18.52-15.04-19.32c-9.37-0.81-18.86-0.18-28.39-0.18c0,16.95,0,33.64,0,50.38c4.47,0,8.56,0,13.02,0
			C270.23,74.98,270.23,70.86,270.23,66.03z M321.01,29.87c0.84,1.71,1.5,3.54,2.56,5.1c3.64,5.37,7.33,10.7,11.18,15.92
			c1.51,2.04,1.68,3.51,0.06,5.66c-4.11,5.44-8,11.04-11.78,16.71c-1.14,1.7-1.62,3.84-2.67,6.42c3.05,0,4.91-0.24,6.68,0.04
			c5.24,0.84,8.75-0.93,11.22-5.81c1.74-3.44,4.45-6.4,6.91-9.81c6.39,8.12,9.5,20.38,24.24,14.52c-3.2-9.39-11.15-16.2-15.72-25.06
			c5.02-8.03,11.36-15.24,16.48-24.82c-4.21,0-6.7,0.28-9.11-0.06c-4.19-0.59-6.79,0.99-8.82,4.65c-1.96,3.54-4.52,6.75-7.19,10.66
			C339.04,35.56,335.44,24.11,321.01,29.87z M415.4,79.42c12.48,0,24.71,0,37.2,0c0-4.18,0-8.09,0-12.52c-7.92,0-15.65,0-23.88,0
			c0-12.93,0-25.34,0-37.84c-4.74,0-8.96,0-13.31,0C415.4,45.98,415.4,62.56,415.4,79.42z M304.1,44.97c0,11.69,0,22.89,0,34.34
			c4.34,0,8.41,0,12.66,0c0-11.56,0-22.89,0-34.34C312.46,44.97,308.51,44.97,304.1,44.97z M303.96,41.61c4.62,0,8.68,0,12.94,0
			c0-4.35,0-8.42,0-12.6c-4.44,0-8.62,0-12.94,0C303.96,33.34,303.96,37.29,303.96,41.61z"/>
		<path class="st1" d="M94.08,78.99c-0.76,0.77-1.41,1.74-2.31,2.28c-12.54,7.47-25.1,14.92-37.73,22.23
			c-1.19,0.69-3.29,1.08-4.37,0.5c-14.18-7.6-28.26-15.39-42.35-23.16c-0.23-0.13-0.3-0.54-0.44-0.83
			c14.35-8.38,28.69-16.76,43.04-25.14c0.45-0.14,0.89-0.28,1.34-0.43c13.9,7.9,27.8,15.8,41.7,23.71
			C93.34,78.44,93.71,78.71,94.08,78.99z"/>
		<path class="st2" d="M49.92,54.88C35.57,63.26,21.23,71.64,6.88,80.02c-0.21-4.42-0.57-8.83-0.61-13.25
			c-0.09-10.95-0.14-21.9,0.08-32.85c0.04-1.8,1.04-4.42,2.42-5.23C22.05,20.92,35.5,13.47,48.89,5.92
			c0.37,1.37,1.06,2.75,1.06,4.12C50.01,24.99,49.95,39.93,49.92,54.88z"/>
		<path class="st3" d="M92.96,78.16c-13.9-7.9-27.8-15.8-41.7-23.7c-0.11-16.52-0.21-33.05-0.31-49.58
			c5.78,3.07,11.62,6.02,17.32,9.23c8.34,4.69,16.57,9.55,24.85,14.34C93.07,45.02,93.02,61.59,92.96,78.16z"/>
		<path class="st4" d="M159.02,78c0-16,0-32,0-48c0.33-0.34,0.66-0.69,0.99-1.03c12.33,0,24.65,0,36.98,0
			c0.32,0.34,0.64,0.68,0.96,1.02c0,3.64,0,7.29,0,11.48c-8.47,0-16.87,0-25.58,0c0,2.27,0,4,0,6.25c8.16,0,16.23,0,24.53,0
			c0,4.28,0,8.05,0,12.4c-8.04,0-16.1,0-24.5,0c0,2.27,0,3.97,0,6.19c8.5,0,16.92,0,25.54,0c0,4.62,0,8.72,0,12.65
			c-13.05,0-25.89,0-38.73,0c0.1-0.11,0.3-0.28,0.27-0.33C159.36,78.4,159.18,78.21,159.02,78z"/>
		<path class="st5" d="M152.95,79.14c-5.5,1.57-9.21,0.18-12.46-4.51c-5.06-7.28-10.89-14.02-17.32-22.17c0,9.93,0,18.32,0,26.95
			c-4.54,0-8.62,0-12.96,0c0-16.83,0-33.42,0-50.24c5.94-1.05,11-1.11,14.93,5.04c4.01,6.27,9.18,11.78,14.66,18.64
			c0-8.62,0-16.11,0-23.84c4.69,0,8.76,0,13.15,0C152.95,45.7,152.95,62.29,152.95,79.14z"/>
		<path class="st4" d="M410.73,40.93c-5.9,0.24-11.79,0.5-17.69,0.7c-2.47,0.08-4.95,0.01-7.76,0.01c0,2.08,0,3.8,0,6.01
			c8.11,0,16.2,0,24.59,0c0,4.36,0,8.24,0,12.62c-8.24,0-16.32,0-24.7,0c-0.09,2.07-0.17,3.67-0.26,5.81c8.65,0,17.06,0,25.79,0
			c0,4.73,0,8.92,0,13.23c-12.75,0-25.17,0-37.59,0c-0.37-0.44-0.75-0.88-1.12-1.32c0-16,0-31.99,0-47.99
			c0.34-0.35,0.69-0.69,1.03-1.04c12.33,0,24.65,0,36.98,0C410.24,32.95,410.48,36.94,410.73,40.93z"/>
		<path class="st6" d="M226.74,27.83c15.28,0.02,26.32,11.17,26.28,26.54c-0.04,15.48-10.99,26.32-26.49,26.24
			c-15.47-0.08-26.15-10.6-26.32-25.93C200.04,39.15,211.24,27.81,226.74,27.83z M226.56,67.99c7.99,0.02,13.15-5.35,13.16-13.7
			c0.01-8.63-5.2-14.18-13.31-14.14c-7.64,0.04-12.67,5.36-12.76,13.5C213.57,62.59,218.41,67.97,226.56,67.99z"/>
		<path class="st5" d="M270.23,66.03c0,4.83,0,8.94,0,13.35c-4.46,0-8.55,0-13.02,0c0-16.73,0-33.43,0-50.38
			c9.53,0,19.03-0.63,28.39,0.18c9.31,0.81,15.67,9.77,15.04,19.32c-0.64,9.85-7.84,17.01-17.79,17.49
			C278.88,66.19,274.9,66.03,270.23,66.03z M270.3,41.32c0,4.17,0,7.74,0,11.76c3.81,0,7.4,0.03,11-0.01
			c3.52-0.04,5.61-1.7,5.79-5.36c0.19-3.84-1.85-6.02-5.47-6.33C278.02,41.08,274.38,41.32,270.3,41.32z"/>
		<path class="st7" d="M321.01,29.87c14.43-5.76,18.03,5.69,24.04,14.1c2.68-3.91,5.23-7.12,7.19-10.66
			c2.03-3.65,4.63-5.23,8.82-4.65c2.41,0.34,4.9,0.06,9.11,0.06c-5.12,9.58-11.46,16.79-16.48,24.82
			c4.57,8.86,12.51,15.68,15.72,25.06c-14.75,5.86-17.86-6.39-24.24-14.52c-2.45,3.41-5.17,6.37-6.91,9.81
			c-2.46,4.88-5.97,6.65-11.22,5.81c-1.77-0.28-3.63-0.04-6.68-0.04c1.05-2.59,1.53-4.72,2.67-6.42
			c3.78-5.67,7.68-11.28,11.78-16.71c1.63-2.15,1.45-3.62-0.06-5.66c-3.85-5.21-7.55-10.55-11.18-15.92
			C322.51,33.41,321.85,31.58,321.01,29.87z"/>
		<path class="st8" d="M415.4,79.42c0-16.85,0-33.43,0-50.36c4.35,0,8.58,0,13.31,0c0,12.49,0,24.91,0,37.84c8.23,0,15.96,0,23.88,0
			c0,4.43,0,8.34,0,12.52C440.12,79.42,427.89,79.42,415.4,79.42z"/>
		<path class="st9" d="M304.1,44.97c4.41,0,8.36,0,12.66,0c0,11.45,0,22.78,0,34.34c-4.24,0-8.32,0-12.66,0
			C304.1,67.86,304.1,56.66,304.1,44.97z"/>
		<path class="st10" d="M303.96,41.61c0-4.32,0-8.27,0-12.6c4.32,0,8.49,0,12.94,0c0,4.18,0,8.25,0,12.6
			C312.65,41.61,308.58,41.61,303.96,41.61z"/>
		<path class="st11" d="M50.95,4.88c0.1,16.53,0.21,33.05,0.31,49.58c-0.44,0.14-0.89,0.28-1.34,0.42
			c0.03-14.95,0.08-29.89,0.03-44.84c0-1.38-0.69-2.75-1.06-4.12C49.58,5.57,50.26,5.22,50.95,4.88z"/>
		<path class="st12" d="M92.96,78.16c0.05-16.57,0.1-33.14,0.16-49.71c0.4,0.83,1.16,1.67,1.16,2.5
			c-0.01,16.02-0.12,32.03-0.2,48.05C93.71,78.71,93.34,78.44,92.96,78.16z"/>
		<path class="st13" d="M410.73,40.93c-0.24-3.99-0.49-7.98-0.73-11.97C410.24,32.95,410.48,36.94,410.73,40.93z"/>
		<path class="st14" d="M160.01,28.97c-0.33,0.34-0.66,0.69-0.99,1.03C159.35,29.65,159.68,29.31,160.01,28.97z"/>
		<path class="st14" d="M197.95,29.99c-0.32-0.34-0.64-0.68-0.96-1.02C197.31,29.31,197.63,29.65,197.95,29.99z"/>
		<path class="st13" d="M373.01,28.97c-0.34,0.35-0.69,0.69-1.03,1.04C372.32,29.66,372.67,29.31,373.01,28.97z"/>
		<path class="st14" d="M159.02,78c0.16,0.21,0.34,0.4,0.46,0.63c0.02,0.05-0.18,0.21-0.27,0.33c-0.09-0.2-0.19-0.4-0.25-0.61
			C158.94,78.24,159,78.12,159.02,78z"/>
		<path class="st13" d="M371.98,77.99c0.37,0.44,0.75,0.88,1.12,1.32C372.72,78.87,372.35,78.43,371.98,77.99z"/>
		<path class="st15" d="M226.56,67.99c-8.16-0.02-12.99-5.39-12.9-14.34c0.08-8.14,5.12-13.46,12.76-13.5
			c8.1-0.04,13.32,5.5,13.31,14.14C239.71,62.64,234.56,68,226.56,67.99z M221.27,55.68c1.2,0.99,2.93,3.52,5.06,3.93
			c3.41,0.66,5.56-1.84,5.56-5.37c0-3.1-1.38-5.54-4.88-5.75C223.21,48.27,221.76,50.64,221.27,55.68z"/>
		<path class="st16" d="M270.3,41.32c4.09,0,7.72-0.24,11.31,0.07c3.62,0.31,5.67,2.48,5.47,6.33c-0.18,3.66-2.27,5.32-5.79,5.36
			c-3.59,0.04-7.19,0.01-11,0.01C270.3,49.07,270.3,45.49,270.3,41.32z"/>
		<path class="st17" d="M221.27,55.68c0.49-5.04,1.94-7.41,5.73-7.19c3.5,0.21,4.88,2.64,4.88,5.75c0,3.52-2.14,6.02-5.56,5.37
			C224.2,59.2,222.47,56.67,221.27,55.68z"/>
	</g>
</g>
</svg>
